<svg width="35" height="35" viewBox="0 0 35 35" fill="none" xmlns="http://www.w3.org/2000/svg">
<path d="M8.75 9.04167C8.75 7.40833 8.75 6.59167 9.06792 5.9675C9.34754 5.41872 9.79372 4.97254 10.3425 4.69292C10.9667 4.375 11.7833 4.375 13.4167 4.375H21.5833C23.2167 4.375 24.0333 4.375 24.6575 4.69292C25.2063 4.97254 25.6525 5.41872 25.9321 5.9675C26.25 6.59167 26.25 7.40833 26.25 9.04167V28.4448C26.25 29.1535 26.25 29.5079 26.1027 29.7019C26.0391 29.7862 25.9578 29.8557 25.8647 29.9056C25.7715 29.9555 25.6686 29.9845 25.5631 29.9906C25.3196 30.0052 25.025 29.8083 24.4358 29.416L17.5 24.7917L10.5642 29.4146C9.975 29.8083 9.68042 30.0052 9.43542 29.9906C9.33018 29.9843 9.22757 29.9551 9.13467 29.9053C9.04177 29.8554 8.96078 29.786 8.89729 29.7019C8.75 29.5079 8.75 29.1535 8.75 28.4448V9.04167Z" stroke="#0A2463" stroke-width="1.5" stroke-linecap="round" stroke-linejoin="round"/>
</svg>
