<svg width="35" height="35" viewBox="0 0 35 35" fill="none" xmlns="http://www.w3.org/2000/svg">
<path d="M29.1668 8.75C29.5385 8.75042 29.896 8.89275 30.1663 9.14791C30.4365 9.40307 30.5992 9.75181 30.621 10.1229C30.6428 10.4939 30.522 10.8593 30.2835 11.1443C30.0449 11.4294 29.7065 11.6126 29.3374 11.6565L29.1668 11.6667H29.0486L27.7084 27.7083C27.7085 28.8243 27.2821 29.898 26.5166 30.71C25.751 31.5219 24.7041 32.0106 23.5901 32.076L23.3334 32.0833H11.6668C9.33634 32.0833 7.43176 30.2619 7.30343 28.0729L7.29614 27.8294L5.95009 11.6667H5.83343C5.46173 11.6663 5.10421 11.5239 4.83393 11.2688C4.56365 11.0136 4.401 10.6649 4.37922 10.2938C4.35743 9.92274 4.47816 9.55737 4.71673 9.27233C4.9553 8.9873 5.2937 8.80411 5.6628 8.76021L5.83343 8.75H29.1668ZM20.4168 2.91667C21.1903 2.91667 21.9322 3.22396 22.4792 3.77094C23.0261 4.31792 23.3334 5.05979 23.3334 5.83334C23.333 6.20504 23.1907 6.56255 22.9355 6.83283C22.6804 7.10312 22.3316 7.26576 21.9606 7.28755C21.5895 7.30933 21.2241 7.1886 20.9391 6.95004C20.6541 6.71147 20.4709 6.37306 20.427 6.00396L20.4168 5.83334H14.5834L14.5732 6.00396C14.5293 6.37306 14.3461 6.71147 14.0611 6.95004C13.7761 7.1886 13.4107 7.30933 13.0396 7.28755C12.6686 7.26576 12.3198 7.10312 12.0647 6.83283C11.8095 6.56255 11.6672 6.20504 11.6668 5.83334C11.6665 5.0975 11.9444 4.38876 12.4448 3.84921C12.9451 3.30965 13.6309 2.97915 14.3647 2.92396L14.5834 2.91667H20.4168Z" fill="#74121D"/>
</svg>
